<?xml version="1.0" encoding="UTF-8" standalone="no"?>
<svg
   width="500"
   zoomAndPan="magnify"
   viewBox="0 0 375 299.99999"
   height="400"
   preserveAspectRatio="xMidYMid"
   version="1.0"
   id="svg262"
   sodipodi:docname="White And Black Simple Name Logo.svg"
   inkscape:version="1.2.2 (732a01da63, 2022-12-09, custom)"
   xmlns:inkscape="http://www.inkscape.org/namespaces/inkscape"
   xmlns:sodipodi="http://sodipodi.sourceforge.net/DTD/sodipodi-0.dtd"
   xmlns="http://www.w3.org/2000/svg"
   xmlns:svg="http://www.w3.org/2000/svg">
  <sodipodi:namedview
     id="namedview264"
     pagecolor="#ffffff"
     bordercolor="#000000"
     borderopacity="0.25"
     inkscape:showpageshadow="2"
     inkscape:pageopacity="0.0"
     inkscape:pagecheckerboard="0"
     inkscape:deskcolor="#d1d1d1"
     showgrid="false"
     inkscape:zoom="1.1836968"
     inkscape:cx="78.56742"
     inkscape:cy="260.20178"
     inkscape:window-width="1920"
     inkscape:window-height="1003"
     inkscape:window-x="0"
     inkscape:window-y="0"
     inkscape:window-maximized="1"
     inkscape:current-layer="svg262" />
  <defs
     id="defs10">
    <g
       id="g2" />
    <clipPath
       id="dd69bd7aa1">
      <path
         d="m 111.75,89.238281 h 151.5 V 240.73828 h -151.5 z m 0,0"
         clip-rule="nonzero"
         id="path4" />
    </clipPath>
    <clipPath
       id="1316197d2e">
      <path
         d="m 187.5,89.238281 c -41.83594,0 -75.75,33.914059 -75.75,75.749999 0,41.83594 33.91406,75.75 75.75,75.75 41.83594,0 75.75,-33.91406 75.75,-75.75 0,-41.83594 -33.91406,-75.749999 -75.75,-75.749999"
         clip-rule="nonzero"
         id="path7" />
    </clipPath>
  </defs>
  <g
     clip-path="url(#dd69bd7aa1)"
     id="g22"
     transform="matrix(1.2451301,0,0,1.2451301,-45.554028,-86.821188)">
    <g
       clip-path="url(#1316197d2e)"
       id="g20">
      <path
         fill="#003366"
         d="m 111.75,89.238281 h 151.5 V 240.73828 h -151.5 z m 0,0"
         fill-opacity="1"
         fill-rule="nonzero"
         id="path18" />
    </g>
  </g>
  <g
     fill="#ffffff"
     fill-opacity="1"
     id="g30"
     transform="matrix(1.2451301,0,0,1.2451301,-45.554028,-86.821188)">
    <g
       transform="translate(171.22773,184.11623)"
       id="g28">
      <g
         id="g26">
        <path
           d="m 67.328125,-19.5625 h -43.6875 L 15.34375,0 H 0.125 l 38.25,-86.640625 H 53.34375 L 91.21875,0 H 75.625 Z m -5.5625,-12.984375 -16.34375,-38.5 -16.34375,38.5 z m 0,0"
           id="path24" />
      </g>
    </g>
  </g>
  <g
     fill="#ffffff"
     fill-opacity="1"
     id="g38"
     transform="matrix(1.2451301,0,0,1.2451301,-45.554028,-86.821188)">
    <g
       transform="translate(117.33102,232.87649)"
       id="g36">
      <g
         id="g34">
        <path
           d="m 11.390625,-86.640625 h 34.53125 c 10.882813,0 19.316406,2.578125 25.296875,7.734375 5.988281,5.15625 8.984375,12.4375 8.984375,21.84375 0,9.824219 -2.996094,17.4375 -8.984375,22.84375 -5.980469,5.40625 -14.414062,8.109375 -25.296875,8.109375 h -19.9375 V 0 h -14.59375 z m 14.59375,13.125 v 34.28125 h 19.3125 c 13.945313,0 20.921875,-5.816406 20.921875,-17.453125 0,-11.21875 -6.976562,-16.828125 -20.921875,-16.828125 z m 0,0"
           id="path32" />
      </g>
    </g>
  </g>
  <g
     fill="#003366"
     fill-opacity="1"
     id="g46"
     transform="matrix(1.2451301,0,0,1.2451301,-45.554028,-86.821188)">
    <g
       transform="translate(50.800815,272.37277)"
       id="g44">
      <g
         id="g42">
        <path
           d="m 1.71875,-17.203125 h 7.5 c 2.195312,0 3.898438,0.523437 5.109375,1.5625 1.207031,1.042969 1.8125,2.523437 1.8125,4.4375 0,2.011719 -0.605469,3.574219 -1.8125,4.6875 -1.210937,1.117187 -2.914063,1.671875 -5.109375,1.671875 h -3.125 V 0 h -4.375 z m 4.375,3.4375 V -8.28125 H 9 c 0.96875,0 1.710938,-0.234375 2.234375,-0.703125 0.519531,-0.476563 0.78125,-1.171875 0.78125,-2.078125 0,-0.882812 -0.261719,-1.554688 -0.78125,-2.015625 C 10.710938,-13.535156 9.96875,-13.765625 9,-13.765625 Z m 0,0"
           id="path40" />
      </g>
    </g>
  </g>
  <g
     fill="#003366"
     fill-opacity="1"
     id="g54"
     transform="matrix(1.2451301,0,0,1.2451301,-45.554028,-86.821188)">
    <g
       transform="translate(67.511282,272.37277)"
       id="g52">
      <g
         id="g50">
        <path
           d="m 6.09375,0 h -4.375 v -17.203125 h 4.375 z m 0,0"
           id="path48" />
      </g>
    </g>
  </g>
  <g
     fill="#003366"
     fill-opacity="1"
     id="g62"
     transform="matrix(1.2451301,0,0,1.2451301,-45.554028,-86.821188)">
    <g
       transform="translate(75.325879,272.37277)"
       id="g60">
      <g
         id="g58">
        <path
           d="M 11.703125,-9 17.875,0 H 12.640625 L 8.921875,-5.484375 5.203125,0 H 0.125 l 6.140625,-8.796875 -5.75,-8.40625 h 5.09375 l 3.3125,5.015625 3.3125,-5.015625 H 17.375 Z m 0,0"
           id="path56" />
      </g>
    </g>
  </g>
  <g
     fill="#003366"
     fill-opacity="1"
     id="g70"
     transform="matrix(1.2451301,0,0,1.2451301,-45.554028,-86.821188)">
    <g
       transform="translate(93.363358,272.37277)"
       id="g68">
      <g
         id="g66">
        <path
           d="M 15.1875,-13.765625 H 6.09375 v 3.421875 h 8.203125 v 3.4375 H 6.09375 v 3.46875 h 9.359375 V 0 H 1.71875 V -17.203125 H 15.1875 Z m 0,0"
           id="path64" />
      </g>
    </g>
  </g>
  <g
     fill="#003366"
     fill-opacity="1"
     id="g78"
     transform="matrix(1.2451301,0,0,1.2451301,-45.554028,-86.821188)">
    <g
       transform="translate(109.92638,272.37277)"
       id="g76">
      <g
         id="g74">
        <path
           d="m 6.09375,-3.65625 h 7.296875 V 0 H 1.71875 v -17.203125 h 4.375 z m 0,0"
           id="path72" />
      </g>
    </g>
  </g>
  <g
     fill="#003366"
     fill-opacity="1"
     id="g86"
     transform="matrix(1.2451301,0,0,1.2451301,-45.554028,-86.821188)">
    <g
       transform="translate(123.68794,272.37277)"
       id="g84">
      <g
         id="g82">
        <path
           d="m 6.09375,-3.65625 h 7.296875 V 0 H 1.71875 v -17.203125 h 4.375 z m 0,0"
           id="path80" />
      </g>
    </g>
  </g>
  <g
     fill="#003366"
     fill-opacity="1"
     id="g94"
     transform="matrix(1.2451301,0,0,1.2451301,-45.554028,-86.821188)">
    <g
       transform="translate(137.44951,272.37277)"
       id="g92">
      <g
         id="g90">
        <path
           d="M 15.1875,-13.765625 H 6.09375 v 3.421875 h 8.203125 v 3.4375 H 6.09375 v 3.46875 h 9.359375 V 0 H 1.71875 V -17.203125 H 15.1875 Z m 0,0"
           id="path88" />
      </g>
    </g>
  </g>
  <g
     fill="#003366"
     fill-opacity="1"
     id="g102"
     transform="matrix(1.2451301,0,0,1.2451301,-45.554028,-86.821188)">
    <g
       transform="translate(154.01253,272.37277)"
       id="g100">
      <g
         id="g98">
        <path
           d="M 17.59375,0 H 13.734375 L 5.828125,-10.59375 V 0 H 1.71875 v -17.203125 h 3.859375 l 7.9375,10.609375 v -10.609375 h 4.078125 z m 0,0"
           id="path96" />
      </g>
    </g>
  </g>
  <g
     fill="#003366"
     fill-opacity="1"
     id="g110"
     transform="matrix(1.2451301,0,0,1.2451301,-45.554028,-86.821188)">
    <g
       transform="translate(173.32787,272.37277)"
       id="g108">
      <g
         id="g106">
        <path
           d="m 8.328125,-17.40625 c 2.570313,0 4.832031,0.640625 6.78125,1.921875 L 13.46875,-12.0625 c -0.90625,-0.53125 -1.875,-0.960938 -2.90625,-1.296875 -1.03125,-0.332031 -1.898438,-0.5 -2.59375,-0.5 -1.261719,0 -1.890625,0.417969 -1.890625,1.25 0,0.542969 0.304687,0.980469 0.921875,1.3125 0.625,0.324219 1.382812,0.605469 2.28125,0.84375 0.894531,0.230469 1.785156,0.515625 2.671875,0.859375 0.894531,0.335938 1.65625,0.882812 2.28125,1.640625 0.625,0.75 0.9375,1.699219 0.9375,2.84375 0,1.65625 -0.652344,2.949219 -1.953125,3.875 -1.292969,0.917969 -2.9375,1.375 -4.9375,1.375 -1.429688,0 -2.839844,-0.242187 -4.234375,-0.734375 -1.386719,-0.488281 -2.59375,-1.160156 -3.625,-2.015625 l 1.6875,-3.359375 c 0.875,0.75 1.898437,1.371094 3.078125,1.859375 1.175781,0.480469 2.222656,0.71875 3.140625,0.71875 0.707031,0 1.253906,-0.125 1.640625,-0.375 0.394531,-0.257813 0.59375,-0.632813 0.59375,-1.125 0,-0.476563 -0.226562,-0.875 -0.671875,-1.1875 -0.449219,-0.320313 -1.011719,-0.5625 -1.6875,-0.71875 -0.667969,-0.15625 -1.398437,-0.363281 -2.1875,-0.625 -0.78125,-0.257813 -1.511719,-0.546875 -2.1875,-0.859375 -0.667969,-0.3125 -1.230469,-0.804688 -1.6875,-1.484375 -0.449219,-0.6875 -0.671875,-1.503906 -0.671875,-2.453125 0,-1.570312 0.625,-2.828125 1.875,-3.765625 1.257812,-0.945313 2.921875,-1.421875 4.984375,-1.421875 z m 0,0"
           id="path104" />
      </g>
    </g>
  </g>
  <g
     fill="#003366"
     fill-opacity="1"
     id="g116">
    <g
       transform="translate(189.15366,272.37277)"
       id="g114">
      <g
         id="g112" />
    </g>
  </g>
  <g
     fill="#003366"
     fill-opacity="1"
     id="g124"
     transform="matrix(1.2451301,0,0,1.2451301,-45.554028,-86.821188)">
    <g
       transform="translate(194.85488,272.37277)"
       id="g122">
      <g
         id="g120">
        <path
           d="M 13.15625,-3.171875 H 5.625 L 4.375,0 h -4.5 l 7.421875,-17.203125 h 4.5 L 19.046875,0 H 14.375 Z m -1.28125,-3.3125 -2.46875,-6.375 -2.5,6.375 z m 0,0"
           id="path118" />
      </g>
    </g>
  </g>
  <g
     fill="#003366"
     fill-opacity="1"
     id="g132"
     transform="matrix(1.2451301,0,0,1.2451301,-45.554028,-86.821188)">
    <g
       transform="translate(213.77703,272.37277)"
       id="g130">
      <g
         id="g128">
        <path
           d="m 9.78125,-17.359375 c 1.28125,0 2.535156,0.265625 3.765625,0.796875 1.238281,0.523438 2.296875,1.226562 3.171875,2.109375 l -2.53125,3 c -0.5625,-0.6875 -1.234375,-1.226563 -2.015625,-1.625 -0.773437,-0.40625 -1.542969,-0.609375 -2.3125,-0.609375 -1.367187,0 -2.507813,0.480469 -3.421875,1.4375 -0.917969,0.960938 -1.375,2.140625 -1.375,3.546875 0,1.449219 0.457031,2.65625 1.375,3.625 0.914062,0.960937 2.054688,1.4375 3.421875,1.4375 0.71875,0 1.460937,-0.175781 2.234375,-0.53125 0.78125,-0.363281 1.476562,-0.859375 2.09375,-1.484375 l 2.546875,2.703125 c -0.929687,0.949219 -2.027344,1.714844 -3.296875,2.296875 -1.273438,0.5742188 -2.539062,0.859375 -3.796875,0.859375 -2.59375,0 -4.75,-0.84375 -6.46875,-2.53125 C 1.453125,-4.015625 0.59375,-6.125 0.59375,-8.65625 c 0,-2.46875 0.875,-4.535156 2.625,-6.203125 1.75,-1.664063 3.9375,-2.5 6.5625,-2.5 z m 0,0"
           id="path126" />
      </g>
    </g>
  </g>
  <g
     fill="#003366"
     fill-opacity="1"
     id="g140"
     transform="matrix(1.2451301,0,0,1.2451301,-45.554028,-86.821188)">
    <g
       transform="translate(230.78239,272.37277)"
       id="g138">
      <g
         id="g136">
        <path
           d="M 13.15625,-3.171875 H 5.625 L 4.375,0 h -4.5 l 7.421875,-17.203125 h 4.5 L 19.046875,0 H 14.375 Z m -1.28125,-3.3125 -2.46875,-6.375 -2.5,6.375 z m 0,0"
           id="path134" />
      </g>
    </g>
  </g>
  <g
     fill="#003366"
     fill-opacity="1"
     id="g148"
     transform="matrix(1.2451301,0,0,1.2451301,-45.554028,-86.821188)">
    <g
       transform="translate(249.70454,272.37277)"
       id="g146">
      <g
         id="g144">
        <path
           d="M 1.71875,-17.203125 H 9.125 c 2.695312,0 4.894531,0.796875 6.59375,2.390625 1.695312,1.585938 2.546875,3.652344 2.546875,6.203125 0,2.542969 -0.867187,4.617187 -2.59375,6.21875 C 13.953125,-0.796875 11.710938,0 8.953125,0 H 1.71875 Z m 4.375,3.484375 v 10.234375 h 3.125 c 1.34375,0 2.441406,-0.46875 3.296875,-1.40625 0.863281,-0.945313 1.296875,-2.175781 1.296875,-3.6875 0,-1.507813 -0.453125,-2.742187 -1.359375,-3.703125 -0.898437,-0.957031 -2.042969,-1.4375 -3.4375,-1.4375 z m 0,0"
           id="path142" />
      </g>
    </g>
  </g>
  <g
     fill="#003366"
     fill-opacity="1"
     id="g156"
     transform="matrix(1.2451301,0,0,1.2451301,-45.554028,-86.821188)">
    <g
       transform="translate(268.55298,272.37277)"
       id="g154">
      <g
         id="g152">
        <path
           d="M 15.1875,-13.765625 H 6.09375 v 3.421875 h 8.203125 v 3.4375 H 6.09375 v 3.46875 h 9.359375 V 0 H 1.71875 V -17.203125 H 15.1875 Z m 0,0"
           id="path150" />
      </g>
    </g>
  </g>
  <g
     fill="#003366"
     fill-opacity="1"
     id="g164"
     transform="matrix(1.2451301,0,0,1.2451301,-45.554028,-86.821188)">
    <g
       transform="translate(285.11601,272.37277)"
       id="g162">
      <g
         id="g160">
        <path
           d="m 20.625,0 h -3.859375 l -0.03125,-11.1875 -4.125,9.46875 H 9.75 L 5.625,-11.1875 V 0 H 1.71875 v -17.234375 h 4.796875 l 4.671875,10.25 4.671875,-10.25 H 20.625 Z m 0,0"
           id="path158" />
      </g>
    </g>
  </g>
  <g
     fill="#003366"
     fill-opacity="1"
     id="g172"
     transform="matrix(1.2451301,0,0,1.2451301,-45.554028,-86.821188)">
    <g
       transform="translate(307.47855,272.37277)"
       id="g170">
      <g
         id="g168">
        <path
           d="M 10.59375,-5.546875 V 0 H 6.25 V -5.4375 L -0.125,-17.203125 H 4.25 l 4.15625,7.5 4.0625,-7.5 h 4.375 z m 0,0"
           id="path166" />
      </g>
    </g>
  </g>
  <g
     fill="#003366"
     fill-opacity="1"
     id="g180"
     transform="matrix(1.2451301,0,0,1.2451301,-45.554028,-86.821188)">
    <g
       transform="translate(123.65806,286.85195)"
       id="g178">
      <g
         id="g176">
        <path
           d="m 4.015625,-7.4375 c 0.96875,0 1.726563,0.230469 2.28125,0.6875 0.550781,0.460938 0.828125,1.09375 0.828125,1.90625 0,0.804688 -0.277344,1.4375 -0.828125,1.90625 -0.554687,0.460938 -1.3125,0.6875 -2.28125,0.6875 H 2.171875 V 0 h -1.0625 v -7.4375 z m -0.03125,4.265625 c 0.675781,0 1.191406,-0.140625 1.546875,-0.421875 0.351562,-0.289062 0.53125,-0.707031 0.53125,-1.25 0,-0.539062 -0.179688,-0.953125 -0.53125,-1.234375 -0.355469,-0.289063 -0.871094,-0.4375 -1.546875,-0.4375 h -1.8125 v 3.34375 z m 0,0"
           id="path174" />
      </g>
    </g>
  </g>
  <g
     fill="#003366"
     fill-opacity="1"
     id="g188"
     transform="matrix(1.2451301,0,0,1.2451301,-45.554028,-86.821188)">
    <g
       transform="translate(135.37189,286.85195)"
       id="g186">
      <g
         id="g184">
        <path
           d="M 7.515625,-7.4375 V 0 h -1.0625 V -3.3125 H 2.171875 V 0 h -1.0625 v -7.4375 h 1.0625 v 3.203125 h 4.28125 V -7.4375 Z m 0,0"
           id="path182" />
      </g>
    </g>
  </g>
  <g
     fill="#003366"
     fill-opacity="1"
     id="g196"
     transform="matrix(1.2451301,0,0,1.2451301,-45.554028,-86.821188)">
    <g
       transform="translate(148.04126,286.85195)"
       id="g194">
      <g
         id="g192">
        <path
           d="m 4.46875,0.078125 c -0.75,0 -1.429688,-0.1601562 -2.03125,-0.484375 C 1.84375,-0.738281 1.375,-1.191406 1.03125,-1.765625 0.6875,-2.347656 0.515625,-3 0.515625,-3.71875 c 0,-0.71875 0.171875,-1.363281 0.515625,-1.9375 0.34375,-0.582031 0.8125,-1.035156 1.40625,-1.359375 0.601562,-0.332031 1.28125,-0.5 2.03125,-0.5 0.75,0 1.421875,0.167969 2.015625,0.5 C 7.085938,-6.691406 7.5625,-6.238281 7.90625,-5.65625 8.25,-5.082031 8.421875,-4.4375 8.421875,-3.71875 8.421875,-3 8.25,-2.347656 7.90625,-1.765625 7.5625,-1.191406 7.085938,-0.738281 6.484375,-0.40625 5.890625,-0.0820312 5.21875,0.078125 4.46875,0.078125 Z m 0,-0.9375 c 0.550781,0 1.039062,-0.125 1.46875,-0.375 0.4375,-0.25 0.78125,-0.585937 1.03125,-1.015625 0.257812,-0.4375 0.390625,-0.925781 0.390625,-1.46875 0,-0.539062 -0.132813,-1.023438 -0.390625,-1.453125 -0.25,-0.4375 -0.59375,-0.78125 -1.03125,-1.03125 -0.429688,-0.25 -0.917969,-0.375 -1.46875,-0.375 -0.542969,0 -1.039062,0.125 -1.484375,0.375 -0.4375,0.25 -0.78125,0.59375 -1.03125,1.03125 -0.25,0.429687 -0.375,0.914063 -0.375,1.453125 0,0.542969 0.125,1.03125 0.375,1.46875 0.25,0.429688 0.59375,0.765625 1.03125,1.015625 0.445313,0.25 0.941406,0.375 1.484375,0.375 z m 0,0"
           id="path190" />
      </g>
    </g>
  </g>
  <g
     fill="#003366"
     fill-opacity="1"
     id="g204"
     transform="matrix(1.2451301,0,0,1.2451301,-45.554028,-86.821188)">
    <g
       transform="translate(161.00792,286.85195)"
       id="g202">
      <g
         id="g200">
        <path
           d="M 2.59375,-6.515625 H 0.046875 V -7.4375 H 6.1875 v 0.921875 H 3.640625 V 0 H 2.59375 Z m 0,0"
           id="path198" />
      </g>
    </g>
  </g>
  <g
     fill="#003366"
     fill-opacity="1"
     id="g212"
     transform="matrix(1.2451301,0,0,1.2451301,-45.554028,-86.821188)">
    <g
       transform="translate(171.28841,286.85195)"
       id="g210">
      <g
         id="g208">
        <path
           d="m 4.46875,0.078125 c -0.75,0 -1.429688,-0.1601562 -2.03125,-0.484375 C 1.84375,-0.738281 1.375,-1.191406 1.03125,-1.765625 0.6875,-2.347656 0.515625,-3 0.515625,-3.71875 c 0,-0.71875 0.171875,-1.363281 0.515625,-1.9375 0.34375,-0.582031 0.8125,-1.035156 1.40625,-1.359375 0.601562,-0.332031 1.28125,-0.5 2.03125,-0.5 0.75,0 1.421875,0.167969 2.015625,0.5 C 7.085938,-6.691406 7.5625,-6.238281 7.90625,-5.65625 8.25,-5.082031 8.421875,-4.4375 8.421875,-3.71875 8.421875,-3 8.25,-2.347656 7.90625,-1.765625 7.5625,-1.191406 7.085938,-0.738281 6.484375,-0.40625 5.890625,-0.0820312 5.21875,0.078125 4.46875,0.078125 Z m 0,-0.9375 c 0.550781,0 1.039062,-0.125 1.46875,-0.375 0.4375,-0.25 0.78125,-0.585937 1.03125,-1.015625 0.257812,-0.4375 0.390625,-0.925781 0.390625,-1.46875 0,-0.539062 -0.132813,-1.023438 -0.390625,-1.453125 -0.25,-0.4375 -0.59375,-0.78125 -1.03125,-1.03125 -0.429688,-0.25 -0.917969,-0.375 -1.46875,-0.375 -0.542969,0 -1.039062,0.125 -1.484375,0.375 -0.4375,0.25 -0.78125,0.59375 -1.03125,1.03125 -0.25,0.429687 -0.375,0.914063 -0.375,1.453125 0,0.542969 0.125,1.03125 0.375,1.46875 0.25,0.429688 0.59375,0.765625 1.03125,1.015625 0.445313,0.25 0.941406,0.375 1.484375,0.375 z m 0,0"
           id="path206" />
      </g>
    </g>
  </g>
  <g
     fill="#003366"
     fill-opacity="1"
     id="g220"
     transform="matrix(1.2451301,0,0,1.2451301,-45.554028,-86.821188)">
    <g
       transform="translate(184.25507,286.85195)"
       id="g218">
      <g
         id="g216">
        <path
           d="M 6.265625,-3.765625 H 7.28125 v 2.90625 C 6.914062,-0.554688 6.488281,-0.320312 6,-0.15625 5.507812,0 5,0.078125 4.46875,0.078125 c -0.75,0 -1.429688,-0.1601562 -2.03125,-0.484375 C 1.84375,-0.738281 1.375,-1.191406 1.03125,-1.765625 0.6875,-2.347656 0.515625,-3 0.515625,-3.71875 0.515625,-4.4375 0.6875,-5.085938 1.03125,-5.671875 1.375,-6.253906 1.847656,-6.707031 2.453125,-7.03125 3.054688,-7.351562 3.738281,-7.515625 4.5,-7.515625 c 0.59375,0 1.128906,0.101563 1.609375,0.296875 0.488281,0.1875 0.90625,0.46875 1.25,0.84375 L 6.6875,-5.71875 C 6.09375,-6.289062 5.375,-6.578125 4.53125,-6.578125 c -0.5625,0 -1.070312,0.125 -1.515625,0.375 -0.449219,0.242187 -0.804687,0.578125 -1.0625,1.015625 -0.25,0.4375 -0.375,0.929688 -0.375,1.46875 0,0.542969 0.125,1.03125 0.375,1.46875 0.257813,0.429688 0.613281,0.765625 1.0625,1.015625 0.445313,0.25 0.953125,0.375 1.515625,0.375 0.664062,0 1.242188,-0.160156 1.734375,-0.484375 z m 0,0"
           id="path214" />
      </g>
    </g>
  </g>
  <g
     fill="#003366"
     fill-opacity="1"
     id="g228"
     transform="matrix(1.2451301,0,0,1.2451301,-45.554028,-86.821188)">
    <g
       transform="translate(196.49975,286.85195)"
       id="g226">
      <g
         id="g224">
        <path
           d="M 6.09375,0 4.484375,-2.28125 c -0.199219,0.011719 -0.355469,0.015625 -0.46875,0.015625 H 2.171875 V 0 h -1.0625 v -7.4375 h 2.90625 c 0.96875,0 1.726563,0.230469 2.28125,0.6875 0.550781,0.460938 0.828125,1.09375 0.828125,1.90625 0,0.574219 -0.148438,1.0625 -0.4375,1.46875 C 6.40625,-2.96875 6.003906,-2.675781 5.484375,-2.5 L 7.25,0 Z M 3.984375,-3.171875 c 0.675781,0 1.191406,-0.140625 1.546875,-0.421875 0.351562,-0.289062 0.53125,-0.707031 0.53125,-1.25 0,-0.539062 -0.179688,-0.953125 -0.53125,-1.234375 -0.355469,-0.289063 -0.871094,-0.4375 -1.546875,-0.4375 h -1.8125 v 3.34375 z m 0,0"
           id="path222" />
      </g>
    </g>
  </g>
  <g
     fill="#003366"
     fill-opacity="1"
     id="g236"
     transform="matrix(1.2451301,0,0,1.2451301,-45.554028,-86.821188)">
    <g
       transform="translate(208.26666,286.85195)"
       id="g234">
      <g
         id="g232">
        <path
           d="M 5.859375,-1.859375 H 1.90625 L 1.078125,0 h -1.09375 l 3.375,-7.4375 H 4.40625 L 7.78125,0 H 6.671875 Z m -0.375,-0.84375 -1.609375,-3.65625 -1.59375,3.65625 z m 0,0"
           id="path230" />
      </g>
    </g>
  </g>
  <g
     fill="#003366"
     fill-opacity="1"
     id="g244"
     transform="matrix(1.2451301,0,0,1.2451301,-45.554028,-86.821188)">
    <g
       transform="translate(220.08665,286.85195)"
       id="g242">
      <g
         id="g240">
        <path
           d="m 4.015625,-7.4375 c 0.96875,0 1.726563,0.230469 2.28125,0.6875 0.550781,0.460938 0.828125,1.09375 0.828125,1.90625 0,0.804688 -0.277344,1.4375 -0.828125,1.90625 -0.554687,0.460938 -1.3125,0.6875 -2.28125,0.6875 H 2.171875 V 0 h -1.0625 v -7.4375 z m -0.03125,4.265625 c 0.675781,0 1.191406,-0.140625 1.546875,-0.421875 0.351562,-0.289062 0.53125,-0.707031 0.53125,-1.25 0,-0.539062 -0.179688,-0.953125 -0.53125,-1.234375 -0.355469,-0.289063 -0.871094,-0.4375 -1.546875,-0.4375 h -1.8125 v 3.34375 z m 0,0"
           id="path238" />
      </g>
    </g>
  </g>
  <g
     fill="#003366"
     fill-opacity="1"
     id="g252"
     transform="matrix(1.2451301,0,0,1.2451301,-45.554028,-86.821188)">
    <g
       transform="translate(231.80048,286.85195)"
       id="g250">
      <g
         id="g248">
        <path
           d="M 7.515625,-7.4375 V 0 h -1.0625 V -3.3125 H 2.171875 V 0 h -1.0625 v -7.4375 h 1.0625 v 3.203125 h 4.28125 V -7.4375 Z m 0,0"
           id="path246" />
      </g>
    </g>
  </g>
  <g
     fill="#003366"
     fill-opacity="1"
     id="g260"
     transform="matrix(1.2451301,0,0,1.2451301,-45.554028,-86.821188)">
    <g
       transform="translate(244.46985,286.85195)"
       id="g258">
      <g
         id="g256">
        <path
           d="M 3.96875,-2.578125 V 0 H 2.90625 V -2.59375 L -0.046875,-7.4375 H 1.09375 l 2.375,3.921875 2.390625,-3.921875 h 1.0625 z m 0,0"
           id="path254" />
      </g>
    </g>
  </g>
</svg>
