<?xml version="1.0" encoding="UTF-8" standalone="no"?>
<svg
   width="256px"
   height="384px"
   viewBox="0 0 256 384"
   version="1.1"
   preserveAspectRatio="xMidYMid"
   id="svg14"
   sodipodi:docname="figma.svg"
   inkscape:version="1.2.2 (732a01da63, 2022-12-09)"
   xmlns:inkscape="http://www.inkscape.org/namespaces/inkscape"
   xmlns:sodipodi="http://sodipodi.sourceforge.net/DTD/sodipodi-0.dtd"
   xmlns="http://www.w3.org/2000/svg"
   xmlns:svg="http://www.w3.org/2000/svg">
  <defs
     id="defs18" />
  <sodipodi:namedview
     id="namedview16"
     pagecolor="#ffffff"
     bordercolor="#000000"
     borderopacity="0.25"
     inkscape:showpageshadow="2"
     inkscape:pageopacity="0.0"
     inkscape:pagecheckerboard="0"
     inkscape:deskcolor="#d1d1d1"
     showgrid="false"
     inkscape:zoom="1.5265404"
     inkscape:cx="85.159881"
     inkscape:cy="184.73143"
     inkscape:window-width="1920"
     inkscape:window-height="1009"
     inkscape:window-x="-8"
     inkscape:window-y="-8"
     inkscape:window-maximized="1"
     inkscape:current-layer="svg14" />
  <g
     id="g12"
     transform="matrix(0.77481762,0,0,0.77481762,28.823344,43.235016)"
     style="stroke-width:1.29063">
    <path
       d="m 64,384 c 35.328,0 64,-28.672 64,-64 V 256 H 64 c -35.328,0 -64,28.672 -64,64 0,35.328 28.672,64 64,64 z"
       fill="#0acf83"
       id="path2"
       style="stroke-width:1.47135" />
    <path
       d="m 0,192 c 0,-35.328 28.672,-64 64,-64 h 64 V 256 H 64 C 28.672,256 0,227.328 0,192 Z"
       fill="#a259ff"
       id="path4"
       style="stroke-width:1.47135" />
    <path
       d="M 0,64 C 0,28.672 28.672,0 64,0 h 64 V 128 H 64 C 28.672,128 0,99.328 0,64 Z"
       fill="#f24e1e"
       id="path6"
       style="stroke-width:1.47135" />
    <path
       d="m 128,0 h 64 c 35.328,0 64,28.672 64,64 0,35.328 -28.672,64 -64,64 h -64 z"
       fill="#ff7262"
       id="path8"
       style="stroke-width:1.47135" />
    <path
       d="m 256,192 c 0,35.328 -28.672,64 -64,64 -35.328,0 -64,-28.672 -64,-64 0,-35.328 28.672,-64 64,-64 35.328,0 64,28.672 64,64 z"
       fill="#1abcfe"
       id="path10"
       style="stroke-width:1.47135" />
  </g>
</svg>
