<?xml version="1.0" encoding="UTF-8" standalone="no"?>
<svg
   width="600"
   zoomAndPan="magnify"
   viewBox="0 0 450 204.749996"
   height="273"
   preserveAspectRatio="xMidYMid meet"
   version="1.0"
   id="svg315"
   sodipodi:docname="logo-dark-mode.svg"
   inkscape:version="1.2.2 (732a01da63, 2022-12-09, custom)"
   xmlns:inkscape="http://www.inkscape.org/namespaces/inkscape"
   xmlns:sodipodi="http://sodipodi.sourceforge.net/DTD/sodipodi-0.dtd"
   xmlns="http://www.w3.org/2000/svg"
   xmlns:svg="http://www.w3.org/2000/svg">
  <sodipodi:namedview
     id="namedview317"
     pagecolor="#ffffff"
     bordercolor="#374151"
     borderopacity="0.25"
     inkscape:showpageshadow="2"
     inkscape:pageopacity="0.0"
     inkscape:pagecheckerboard="0"
     inkscape:deskcolor="#d1d1d1"
     showgrid="false"
     inkscape:zoom="1.6169175"
     inkscape:cx="285.1104"
     inkscape:cy="135.4429"
     inkscape:window-width="1920"
     inkscape:window-height="1003"
     inkscape:window-x="0"
     inkscape:window-y="0"
     inkscape:window-maximized="1"
     inkscape:current-layer="svg315" />
  <defs
     id="defs185">
    <g
       id="g180" />
    <clipPath
       id="73c8f8d31d">
      <path
         d="M 0.273438 0 L 449.726562 0 L 449.726562 204.5 L 0.273438 204.5 Z M 0.273438 0 "
         clip-rule="nonzero"
         id="path182" />
    </clipPath>
  </defs>
  <path
     fill="#374151"
     d="M 71.207031 133.671875 C 51.863281 114.320312 41.457031 103.402344 41.457031 102.453125 C 41.457031 100.519531 100.414062 41.496094 102.347656 41.496094 C 103.988281 41.496094 163.371094 101.167969 163.378906 102.828125 C 163.390625 104.539062 104.148438 163.425781 102.414062 163.425781 C 101.464844 163.425781 90.554688 153.023438 71.207031 133.671875 Z M 158.277344 102.460938 C 158.277344 102.054688 147.601562 91.050781 134.550781 78.007812 L 110.828125 54.289062 L 105.359375 59.757812 L 148.054688 102.46875 L 122.515625 128.003906 L 96.972656 153.535156 L 99.679688 156.304688 L 102.382812 159.078125 L 130.332031 131.136719 C 145.699219 115.769531 158.277344 102.867188 158.277344 102.460938 Z M 96.964844 147.710938 L 99.457031 145.136719 L 78.488281 124.160156 C 66.957031 112.621094 57.519531 102.855469 57.519531 102.453125 C 57.519531 102.050781 68.847656 90.398438 82.695312 76.554688 L 107.871094 51.386719 L 105.167969 48.617188 L 102.460938 45.847656 L 74.515625 73.785156 C 59.144531 89.152344 46.570312 102.050781 46.570312 102.453125 C 46.570312 103.199219 93.320312 150.285156 94.0625 150.285156 C 94.285156 150.285156 95.59375 149.125 96.964844 147.710938 Z M 131.070312 108.132812 L 128.335938 105.402344 L 115.375 118.351562 L 102.410156 131.300781 L 85.277344 114.15625 L 68.148438 97.015625 L 65.753906 99.332031 C 64.4375 100.609375 63.359375 101.996094 63.359375 102.417969 C 63.359375 102.835938 72.148438 111.972656 82.886719 122.71875 L 102.414062 142.253906 L 118.109375 126.5625 L 133.804688 110.867188 Z M 118.125 95.175781 L 110.828125 87.875 L 108.101562 90.601562 L 105.375 93.324219 L 109.917969 97.910156 L 114.460938 102.492188 L 105.714844 111.21875 L 96.964844 119.941406 L 102.378906 125.488281 L 125.425781 102.472656 Z M 96.957031 114.132812 L 99.441406 111.570312 L 94.914062 107 L 90.382812 102.429688 L 99.132812 93.707031 L 107.878906 84.980469 L 105.171875 82.207031 L 102.464844 79.4375 L 90.945312 90.9375 L 79.429688 102.441406 L 86.53125 109.570312 C 90.4375 113.492188 93.820312 116.699219 94.050781 116.699219 C 94.28125 116.699219 95.589844 115.542969 96.957031 114.132812 Z M 105.554688 99.386719 L 102.480469 96.253906 L 96.214844 102.402344 L 99.289062 105.535156 L 102.363281 108.671875 L 105.496094 105.59375 L 108.632812 102.519531 Z M 141.484375 102.496094 C 141.484375 102.070312 132.691406 92.933594 121.949219 82.195312 L 102.410156 62.667969 L 86.730469 78.363281 L 71.046875 94.058594 L 76.507812 99.519531 L 89.472656 86.570312 L 102.4375 73.625 L 119.566406 90.765625 L 136.699219 107.910156 L 139.089844 105.589844 C 140.40625 104.3125 141.484375 102.921875 141.484375 102.496094 Z M 141.484375 102.496094 "
     fill-opacity="1"
     fill-rule="nonzero"
     id="path193" />
  <g
     fill="#374151"
     fill-opacity="1"
     id="g201">
    <g
       transform="translate(166.479499, 108.118558)"
       id="g199">
      <g
         id="g197">
        <path
           d="M 18.171875 0.359375 C 15.097656 0.359375 12.148438 -0.132812 9.328125 -1.125 C 6.503906 -2.113281 4.320312 -3.414062 2.78125 -5.03125 L 4.5 -8.40625 C 6 -6.90625 7.988281 -5.691406 10.46875 -4.765625 C 12.957031 -3.835938 15.523438 -3.375 18.171875 -3.375 C 21.878906 -3.375 24.660156 -4.050781 26.515625 -5.40625 C 28.378906 -6.769531 29.3125 -8.539062 29.3125 -10.71875 C 29.3125 -12.375 28.804688 -13.691406 27.796875 -14.671875 C 26.785156 -15.660156 25.550781 -16.421875 24.09375 -16.953125 C 22.632812 -17.492188 20.601562 -18.078125 18 -18.703125 C 14.882812 -19.492188 12.394531 -20.253906 10.53125 -20.984375 C 8.675781 -21.710938 7.085938 -22.828125 5.765625 -24.328125 C 4.441406 -25.828125 3.78125 -27.863281 3.78125 -30.4375 C 3.78125 -32.519531 4.332031 -34.421875 5.4375 -36.140625 C 6.550781 -37.859375 8.25 -39.226562 10.53125 -40.25 C 12.820312 -41.28125 15.664062 -41.796875 19.0625 -41.796875 C 21.425781 -41.796875 23.742188 -41.46875 26.015625 -40.8125 C 28.285156 -40.164062 30.25 -39.269531 31.90625 -38.125 L 30.4375 -34.640625 C 28.695312 -35.773438 26.835938 -36.628906 24.859375 -37.203125 C 22.890625 -37.773438 20.957031 -38.0625 19.0625 -38.0625 C 15.425781 -38.0625 12.691406 -37.359375 10.859375 -35.953125 C 9.023438 -34.554688 8.109375 -32.753906 8.109375 -30.546875 C 8.109375 -28.890625 8.609375 -27.554688 9.609375 -26.546875 C 10.617188 -25.546875 11.882812 -24.773438 13.40625 -24.234375 C 14.925781 -23.703125 16.96875 -23.125 19.53125 -22.5 C 22.570312 -21.75 25.03125 -21.007812 26.90625 -20.28125 C 28.78125 -19.550781 30.367188 -18.441406 31.671875 -16.953125 C 32.972656 -15.472656 33.625 -13.472656 33.625 -10.953125 C 33.625 -8.859375 33.0625 -6.953125 31.9375 -5.234375 C 30.8125 -3.523438 29.082031 -2.164062 26.75 -1.15625 C 24.425781 -0.144531 21.566406 0.359375 18.171875 0.359375 Z M 18.171875 0.359375 "
           id="path195" />
      </g>
    </g>
  </g>
  <g
     fill="#374151"
     fill-opacity="1"
     id="g209">
    <g
       transform="translate(214.024659, 108.118558)"
       id="g207">
      <g
         id="g205">
        <path
           d="M 41.390625 -41.4375 L 41.390625 0 L 37.0625 0 L 37.0625 -19.125 L 11.125 -19.125 L 11.125 0 L 6.75 0 L 6.75 -41.4375 L 11.125 -41.4375 L 11.125 -22.96875 L 37.0625 -22.96875 L 37.0625 -41.4375 Z M 41.390625 -41.4375 "
           id="path203" />
      </g>
    </g>
  </g>
  <g
     fill="#374151"
     fill-opacity="1"
     id="g217">
    <g
       transform="translate(273.293014, 108.118558)"
       id="g215">
      <g
         id="g213">
        <path
           d="M 36.0625 -3.78125 L 36.0625 0 L 6.75 0 L 6.75 -41.4375 L 35.171875 -41.4375 L 35.171875 -37.65625 L 11.125 -37.65625 L 11.125 -22.90625 L 32.5625 -22.90625 L 32.5625 -19.1875 L 11.125 -19.1875 L 11.125 -3.78125 Z M 36.0625 -3.78125 "
           id="path211" />
      </g>
    </g>
  </g>
  <g
     fill="#374151"
     fill-opacity="1"
     id="g225">
    <g
       transform="translate(324.035408, 108.118558)"
       id="g223">
      <g
         id="g221">
        <path
           d="M 6.75 -41.4375 L 11.125 -41.4375 L 11.125 0 L 6.75 0 Z M 6.75 -41.4375 "
           id="path219" />
      </g>
    </g>
  </g>
  <g
     fill="#374151"
     fill-opacity="1"
     id="g233">
    <g
       transform="translate(353.048474, 108.118558)"
       id="g231">
      <g
         id="g229">
        <path
           d="M 19.59375 -19.484375 L 11.125 -10.890625 L 11.125 0 L 6.75 0 L 6.75 -41.4375 L 11.125 -41.4375 L 11.125 -16.40625 L 35.46875 -41.4375 L 40.5 -41.4375 L 22.5625 -22.671875 L 41.734375 0 L 36.53125 0 Z M 19.59375 -19.484375 "
           id="path227" />
      </g>
    </g>
  </g>
  <g
     fill="#374151"
     fill-opacity="1"
     id="g241">
    <g
       transform="translate(166.479499, 150.361122)"
       id="g239">
      <g
         id="g237">
        <path
           d="M 35.046875 0 L 28.5 0 L 28.453125 -19.015625 L 21.4375 -2.921875 L 16.59375 -2.921875 L 9.5625 -19.015625 L 9.5625 0 L 2.921875 0 L 2.921875 -29.28125 L 11.078125 -29.28125 L 19.015625 -11.859375 L 26.953125 -29.28125 L 35.046875 -29.28125 Z M 35.046875 0 "
           id="path235" />
      </g>
    </g>
  </g>
  <g
     fill="#374151"
     fill-opacity="1"
     id="g249">
    <g
       transform="translate(204.915669, 150.361122)"
       id="g247">
      <g
         id="g245">
        <path
           d="M 13.328125 -22.765625 C 17.003906 -22.765625 19.96875 -21.710938 22.21875 -19.609375 C 24.476562 -17.515625 25.609375 -14.738281 25.609375 -11.28125 C 25.609375 -7.820312 24.476562 -5.035156 22.21875 -2.921875 C 19.96875 -0.804688 17.003906 0.25 13.328125 0.25 C 9.617188 0.25 6.632812 -0.804688 4.375 -2.921875 C 2.125 -5.035156 1 -7.820312 1 -11.28125 C 1 -14.738281 2.125 -17.515625 4.375 -19.609375 C 6.632812 -21.710938 9.617188 -22.765625 13.328125 -22.765625 Z M 13.328125 -17.046875 C 11.828125 -17.046875 10.609375 -16.5 9.671875 -15.40625 C 8.734375 -14.320312 8.265625 -12.921875 8.265625 -11.203125 C 8.265625 -9.441406 8.734375 -8.023438 9.671875 -6.953125 C 10.609375 -5.878906 11.828125 -5.34375 13.328125 -5.34375 C 14.804688 -5.34375 16.007812 -5.878906 16.9375 -6.953125 C 17.875 -8.023438 18.34375 -9.441406 18.34375 -11.203125 C 18.34375 -12.921875 17.875 -14.320312 16.9375 -15.40625 C 16.007812 -16.5 14.804688 -17.046875 13.328125 -17.046875 Z M 13.328125 -17.046875 "
           id="path243" />
      </g>
    </g>
  </g>
  <g
     fill="#374151"
     fill-opacity="1"
     id="g257">
    <g
       transform="translate(231.946387, 150.361122)"
       id="g255">
      <g
         id="g253">
        <path
           d="M 10.953125 -22.859375 C 14.265625 -22.859375 17.351562 -22.007812 20.21875 -20.3125 L 17.75 -15.625 C 14.96875 -17.125 12.601562 -17.875 10.65625 -17.875 C 9.175781 -17.875 8.4375 -17.363281 8.4375 -16.34375 C 8.4375 -15.78125 8.835938 -15.3125 9.640625 -14.9375 C 10.453125 -14.5625 11.441406 -14.21875 12.609375 -13.90625 C 13.785156 -13.601562 14.953125 -13.222656 16.109375 -12.765625 C 17.265625 -12.304688 18.242188 -11.570312 19.046875 -10.5625 C 19.859375 -9.5625 20.265625 -8.335938 20.265625 -6.890625 C 20.265625 -4.640625 19.382812 -2.878906 17.625 -1.609375 C 15.875 -0.335938 13.59375 0.296875 10.78125 0.296875 C 6.800781 0.296875 3.429688 -0.765625 0.671875 -2.890625 L 2.96875 -7.484375 C 5.613281 -5.609375 8.273438 -4.671875 10.953125 -4.671875 C 12.585938 -4.671875 13.40625 -5.1875 13.40625 -6.21875 C 13.40625 -6.8125 13.007812 -7.300781 12.21875 -7.6875 C 11.425781 -8.070312 10.457031 -8.414062 9.3125 -8.71875 C 8.175781 -9.03125 7.035156 -9.414062 5.890625 -9.875 C 4.742188 -10.34375 3.773438 -11.0625 2.984375 -12.03125 C 2.191406 -13.007812 1.796875 -14.234375 1.796875 -15.703125 C 1.796875 -17.960938 2.644531 -19.71875 4.34375 -20.96875 C 6.039062 -22.226562 8.242188 -22.859375 10.953125 -22.859375 Z M 10.953125 -22.859375 "
           id="path251" />
      </g>
    </g>
  </g>
  <g
     fill="#374151"
     fill-opacity="1"
     id="g265">
    <g
       transform="translate(253.796594, 150.361122)"
       id="g263">
      <g
         id="g261">
        <path
           d="M 16 -6.21875 L 17.421875 -1.21875 C 15.671875 -0.1875 13.664062 0.328125 11.40625 0.328125 C 9.175781 0.328125 7.367188 -0.289062 5.984375 -1.53125 C 4.609375 -2.769531 3.921875 -4.53125 3.921875 -6.8125 L 3.921875 -16.75 L 0.796875 -16.75 L 0.796875 -21.46875 L 3.921875 -21.46875 L 3.921875 -27.75 L 11.109375 -27.75 L 11.109375 -21.515625 L 17 -21.515625 L 17 -16.75 L 11.109375 -16.75 L 11.109375 -7.9375 C 11.109375 -7.070312 11.28125 -6.4375 11.625 -6.03125 C 11.976562 -5.632812 12.503906 -5.445312 13.203125 -5.46875 C 13.867188 -5.46875 14.800781 -5.71875 16 -6.21875 Z M 16 -6.21875 "
           id="path259" />
      </g>
    </g>
  </g>
  <g
     fill="#374151"
     fill-opacity="1"
     id="g273">
    <g
       transform="translate(272.388099, 150.361122)"
       id="g271">
      <g
         id="g269">
        <path
           d="M 13 -22.859375 C 16.082031 -22.859375 18.476562 -22.140625 20.1875 -20.703125 C 21.90625 -19.265625 22.78125 -17.265625 22.8125 -14.703125 L 22.8125 0 L 15.75 0 L 15.75 -2.59375 C 14.269531 -0.644531 11.972656 0.328125 8.859375 0.328125 C 6.492188 0.328125 4.613281 -0.320312 3.21875 -1.625 C 1.820312 -2.9375 1.125 -4.640625 1.125 -6.734375 C 1.125 -8.867188 1.867188 -10.53125 3.359375 -11.71875 C 4.847656 -12.90625 6.988281 -13.507812 9.78125 -13.53125 L 15.703125 -13.53125 L 15.703125 -13.875 C 15.703125 -14.988281 15.332031 -15.859375 14.59375 -16.484375 C 13.863281 -17.109375 12.773438 -17.421875 11.328125 -17.421875 C 9.285156 -17.421875 7.039062 -16.796875 4.59375 -15.546875 L 2.546875 -20.3125 C 6.191406 -22.007812 9.675781 -22.859375 13 -22.859375 Z M 11.078125 -4.546875 C 12.210938 -4.546875 13.210938 -4.832031 14.078125 -5.40625 C 14.941406 -5.976562 15.484375 -6.722656 15.703125 -7.640625 L 15.703125 -9.65625 L 11.15625 -9.65625 C 8.976562 -9.65625 7.890625 -8.847656 7.890625 -7.234375 C 7.890625 -6.390625 8.164062 -5.726562 8.71875 -5.25 C 9.28125 -4.78125 10.066406 -4.546875 11.078125 -4.546875 Z M 11.078125 -4.546875 "
           id="path267" />
      </g>
    </g>
  </g>
  <g
     fill="#374151"
     fill-opacity="1"
     id="g281">
    <g
       transform="translate(297.873018, 150.361122)"
       id="g279">
      <g
         id="g277">
        <path
           d="M 13.953125 -25.609375 C 13.203125 -25.640625 12.582031 -25.4375 12.09375 -25 C 11.601562 -24.570312 11.359375 -23.953125 11.359375 -23.140625 L 11.359375 -21.515625 L 16.46875 -21.515625 L 16.46875 -16.75 L 11.359375 -16.75 L 11.359375 0 L 4.21875 0 L 4.21875 -16.75 L 1.171875 -16.75 L 1.171875 -21.515625 L 4.21875 -21.515625 L 4.21875 -23.609375 C 4.21875 -26.023438 5.023438 -27.914062 6.640625 -29.28125 C 8.253906 -30.644531 10.316406 -31.328125 12.828125 -31.328125 C 15.222656 -31.328125 17.328125 -30.800781 19.140625 -29.75 L 16.59375 -24.6875 C 15.75 -25.300781 14.867188 -25.609375 13.953125 -25.609375 Z M 13.953125 -25.609375 "
           id="path275" />
      </g>
    </g>
  </g>
  <g
     fill="#374151"
     fill-opacity="1"
     id="g289">
    <g
       transform="translate(314.417393, 150.361122)"
       id="g287">
      <g
         id="g285">
        <path
           d="M 3.78125 -31.734375 C 4.488281 -32.441406 5.398438 -32.796875 6.515625 -32.796875 C 7.628906 -32.796875 8.539062 -32.441406 9.25 -31.734375 C 9.957031 -31.023438 10.3125 -30.113281 10.3125 -29 C 10.3125 -27.882812 9.957031 -26.960938 9.25 -26.234375 C 8.539062 -25.515625 7.628906 -25.15625 6.515625 -25.15625 C 5.398438 -25.15625 4.488281 -25.515625 3.78125 -26.234375 C 3.070312 -26.960938 2.71875 -27.882812 2.71875 -29 C 2.71875 -30.113281 3.070312 -31.023438 3.78125 -31.734375 Z M 10.0625 0 L 2.890625 0 L 2.890625 -22.515625 L 10.0625 -22.515625 Z M 10.0625 0 "
           id="path283" />
      </g>
    </g>
  </g>
  <g
     fill="#374151"
     fill-opacity="1"
     id="g297">
    <g
       transform="translate(327.828408, 150.361122)"
       id="g295">
      <g
         id="g293">
        <path
           d="M 21.515625 -18.171875 L 10.484375 -5.4375 L 21.890625 -5.4375 L 21.890625 0 L 1.421875 0 L 1.421875 -4.34375 L 12.5 -17.09375 L 1.84375 -17.09375 L 1.84375 -22.515625 L 21.515625 -22.515625 Z M 21.515625 -18.171875 "
           id="path291" />
      </g>
    </g>
  </g>
  <g
     fill="#374151"
     fill-opacity="1"
     id="g305">
    <g
       transform="translate(351.349738, 150.361122)"
       id="g303">
      <g
         id="g301">
        <path
           d="M 24.8125 -22.515625 L 24.8125 0 L 17.59375 0 L 17.59375 -3.71875 C 16.0625 -1.039062 13.625 0.296875 10.28125 0.296875 C 7.820312 0.296875 5.863281 -0.484375 4.40625 -2.046875 C 2.945312 -3.609375 2.21875 -5.695312 2.21875 -8.3125 L 2.21875 -22.515625 L 9.4375 -22.515625 L 9.4375 -10.359375 C 9.4375 -9.023438 9.773438 -7.972656 10.453125 -7.203125 C 11.140625 -6.441406 12.054688 -6.0625 13.203125 -6.0625 C 14.566406 -6.082031 15.640625 -6.585938 16.421875 -7.578125 C 17.203125 -8.566406 17.59375 -9.84375 17.59375 -11.40625 L 17.59375 -22.515625 Z M 24.8125 -22.515625 "
           id="path299" />
      </g>
    </g>
  </g>
  <g
     fill="#374151"
     fill-opacity="1"
     id="g313">
    <g
       transform="translate(379.466678, 150.361122)"
       id="g311">
      <g
         id="g309">
        <path
           d="M 10.109375 -22.515625 L 10.109375 -18.71875 C 11.703125 -21.414062 14.140625 -22.796875 17.421875 -22.859375 L 17.421875 -16.34375 C 15.359375 -16.53125 13.671875 -16.1875 12.359375 -15.3125 C 11.054688 -14.4375 10.304688 -13.191406 10.109375 -11.578125 L 10.109375 0 L 2.890625 0 L 2.890625 -22.515625 Z M 10.109375 -22.515625 "
           id="path307" />
      </g>
    </g>
  </g>
</svg>
