<?xml version="1.0" encoding="UTF-8" standalone="no"?>
<svg
   width="170"
   zoomAndPan="magnify"
   viewBox="0 0 127.5 127.5"
   height="170"
   preserveAspectRatio="xMidYMid"
   version="1.0"
   id="svg315"
   sodipodi:docname="logo-light-mode.svg"
   inkscape:version="1.2.2 (732a01da63, 2022-12-09, custom)"
   xmlns:inkscape="http://www.inkscape.org/namespaces/inkscape"
   xmlns:sodipodi="http://sodipodi.sourceforge.net/DTD/sodipodi-0.dtd"
   xmlns="http://www.w3.org/2000/svg"
   xmlns:svg="http://www.w3.org/2000/svg">
  <sodipodi:namedview
     id="namedview317"
     pagecolor="#ffffff"
     bordercolor="#374151"
     borderopacity="0.25"
     inkscape:showpageshadow="2"
     inkscape:pageopacity="0.0"
     inkscape:pagecheckerboard="0"
     inkscape:deskcolor="#d1d1d1"
     showgrid="false"
     inkscape:zoom="1.6169175"
     inkscape:cx="285.1104"
     inkscape:cy="134.82444"
     inkscape:window-width="1920"
     inkscape:window-height="1003"
     inkscape:window-x="0"
     inkscape:window-y="0"
     inkscape:window-maximized="1"
     inkscape:current-layer="svg315" />
  <defs
     id="defs185">
    <g
       id="g180" />
    <clipPath
       id="73c8f8d31d">
      <path
         d="M 0.273438,0 H 449.72656 V 204.5 H 0.273438 Z m 0,0"
         clip-rule="nonzero"
         id="path182" />
    </clipPath>
  </defs>
  <path
     fill="#374151"
     d="M 32.317061,94.88088 C 12.973311,75.529317 2.5670608,64.611349 2.5670608,63.66213 c 0,-1.933594 58.9570312,-60.9570314 60.8906252,-60.9570314 1.640625,0 61.023434,59.6718754 61.031254,61.3320314 0.0117,1.710937 -59.230472,60.59766 -60.964848,60.59766 -0.949218,0 -11.859374,-10.40235 -31.207031,-29.75391 z M 119.38737,63.669943 c 0,-0.40625 -10.67578,-11.410157 -23.726559,-24.453126 l -23.722656,-23.71875 -5.46875,5.46875 42.695315,42.710938 -25.539065,25.535156 -25.542969,25.531249 2.707032,2.76953 2.703124,2.77344 27.949219,-27.941406 C 106.80925,76.978536 119.38737,64.076193 119.38737,63.669943 Z M 58.074874,108.91994 60.567061,106.34572 39.598311,85.369161 C 28.067061,73.830099 18.629561,64.064474 18.629561,63.66213 c 0,-0.402344 11.328125,-12.054687 25.175781,-25.898437 L 68.981124,12.595724 66.277999,9.8261926 63.570968,7.0566606 35.625655,34.994161 C 20.254561,50.361349 7.6803418,63.259786 7.6803418,63.66213 c 0,0.746094 46.7500002,47.83203 47.4921882,47.83203 0.222656,0 1.53125,-1.16016 2.902344,-2.57422 z M 92.180342,69.341817 89.445968,66.611349 76.48503,79.560567 63.520186,92.509786 46.387374,75.365255 29.258468,58.22463 26.863936,60.541036 c -1.316406,1.277344 -2.394531,2.664063 -2.394531,3.085938 0,0.417969 8.789063,9.554687 19.527344,20.300781 L 63.524092,103.46291 79.219405,87.771505 94.914718,72.076193 Z M 79.23503,56.384786 l -7.296875,-7.300781 -2.726563,2.726562 -2.726562,2.722657 4.542969,4.585937 4.542969,4.582032 -8.746094,8.726562 -8.75,8.722656 5.414062,5.546875 23.046875,-23.015625 z m -21.167969,18.957031 2.484375,-2.5625 -4.527344,-4.570312 -4.53125,-4.570312 8.75,-8.722657 8.746094,-8.726562 -2.707031,-2.773438 -2.707031,-2.769531 -11.519532,11.5 -11.515624,11.503906 7.101562,7.128906 c 3.90625,3.921876 7.289062,7.128907 7.519531,7.128907 0.230469,0 1.539063,-1.15625 2.90625,-2.566407 z m 8.597657,-14.746093 -3.074219,-3.132813 -6.265625,6.148438 3.074218,3.132812 3.074219,3.136719 3.132813,-3.078125 3.136718,-3.074219 z m 35.929682,3.109375 c 0,-0.425782 -8.792964,-9.5625 -19.535151,-20.300782 L 63.520186,23.876974 47.840499,39.572286 32.156905,55.267599 37.617842,60.728536 50.582686,47.779317 63.54753,34.834005 80.676436,51.97463 97.809249,69.119161 100.19987,66.798849 c 1.31641,-1.277344 2.39453,-2.667969 2.39453,-3.09375 z m 0,0"
     fill-opacity="1"
     fill-rule="nonzero"
     id="path193" />
</svg>
